<svg xmlns="http://www.w3.org/2000/svg" viewBox="0 0 64 64">
  <rect width="64" height="64" rx="14" fill="#0b0b0e"/>
  <defs>
    <linearGradient id="g" x1="0" y1="0" x2="0" y2="1">
      <stop offset="0" stop-color="#ffffff"/>
      <stop offset="0.55" stop-color="#cfd1d6"/>
      <stop offset="1" stop-color="#6c707c"/>
    </linearGradient>
  </defs>
  <path d="M44.6 11.1c-2.6-1.5-6.4-2.3-10.3-2 1.7 1.5 2.6 2.9 3.4 4.7-2.3-.4-5.2-.1-7.6 1.1 1.6.6 3 1.7 4 3.1-2.6.3-5.3 1.7-7.1 3.7l5.8.2c-1.7 1.4-3 3.4-3.6 5.5l4.3-1.1c-.7 1.7-1 3.7-.7 5.6l3.8-2.4c-.1 1.6.4 3.4 1.4 4.8l2.7-3.5c.5 1.5 1.6 2.9 3 3.7l1.5-4.4c.9 1.4 2.5 2.5 4.2 2.9l-.4-4.9c1.6 1.4 3.6 2.1 5.5 2.1l-1.7-5.3c2 1 4.4 1.3 6.5.8l-2.6-5.4c.7-1.5.7-3.3-.1-4.8-2-3.5-7.8-5.4-12-4.4z" fill="url(#g)"/>
  <path d="M14.2 36.8 22 26l4 8.4 5.4-3.4 2 5.6 4.3-1.7 4.5 6.6h7.6l-3.6 5.5H14l-3.4-5.5h7.4l-3.8-4.7z" fill="url(#g)" opacity="0.9"/>
</svg>
